HIERARCHY
ROOT Hip
{
  OFFSET 0.0 0.0 0.0
  CHANNELS 6 Xposition Yposition Zposition Xrotation Yrotation Zrotation
  JOINT LowerSpine
  {
    OFFSET 0.0 0.061367 -0.03653
    CHANNELS 3 Xrotation Yrotation Zrotation
    JOINT MiddleSpine
    {
      OFFSET 0.0 0.056002 0.002633
      CHANNELS 3 Xrotation Yrotation Zrotation
      JOINT Chest
      {
        OFFSET 0.0 0.069296 -0.013882
        CHANNELS 3 Xrotation Yrotation Zrotation
        JOINT Neck
        {
          OFFSET 0.0 0.156156 -0.002923
          CHANNELS 3 Xrotation Yrotation Zrotation
          JOINT Head
          {
            OFFSET 0.0 0.088183 0.023986
            CHANNELS 3 Xrotation Yrotation Zrotation
            End Site
            {
              OFFSET 1e-06 0.123215 0.003678
            }
          }
        }
        JOINT LClavicle
        {
          OFFSET 0.014189 0.150698 0.046467
          CHANNELS 3 Xrotation Yrotation Zrotation
          JOINT LShoulder
          {
            OFFSET 0.082893 0.021616 -0.034976
            CHANNELS 3 Xrotation Yrotation Zrotation
            JOINT LForearm
            {
              OFFSET 0.195645 -0.000695 -0.001695
              CHANNELS 3 Xrotation Yrotation Zrotation
              JOINT LHand
              {
                OFFSET 0.163209 0.000474 -0.000977
                CHANNELS 3 Xrotation Yrotation Zrotation
                End Site
                {
                  OFFSET 0.0 0.006864 0.0
                }
              }
            }
          }
        }
        JOINT RClavicle
        {
          OFFSET -0.014189 0.150698 0.046467
          CHANNELS 3 Xrotation Yrotation Zrotation
          JOINT RShoulder
          {
            OFFSET -0.082908 0.021619 -0.034982
            CHANNELS 3 Xrotation Yrotation Zrotation
            JOINT RForearm
            {
              OFFSET -0.195645 -0.000695 -0.001695
              CHANNELS 3 Xrotation Yrotation Zrotation
              JOINT RHand
              {
                OFFSET -0.163209 0.000474 -0.000977
                CHANNELS 3 Xrotation Yrotation Zrotation
                End Site
                {
                  OFFSET 0.0 0.006864 0.0
                }
              }
            }
          }
        }
      }
    }
  }
  JOINT RThigh
  {
    OFFSET -0.072558 0.02774 -0.005953
    CHANNELS 3 Xrotation Yrotation Zrotation
    JOINT RShin
    {
      OFFSET -0.005253 -0.285537 0.0
      CHANNELS 3 Xrotation Yrotation Zrotation
      JOINT RFoot
      {
        OFFSET 0.0 -0.28038 0.0
        CHANNELS 3 Xrotation Yrotation Zrotation
        JOINT RToe
        {
          OFFSET 0.0 -0.030816 0.064441
          CHANNELS 3 Xrotation Yrotation Zrotation
          End Site
          {
            OFFSET 0.0 0.0 0.043231
          }
        }
      }
    }
  }
  JOINT LThigh
  {
    OFFSET 0.072557 0.027741 -0.005953
    CHANNELS 3 Xrotation Yrotation Zrotation
    JOINT LShin
    {
      OFFSET 0.005253 -0.285539 0.0
      CHANNELS 3 Xrotation Yrotation Zrotation
      JOINT LFoot
      {
        OFFSET 0.0 -0.28038 0.0
        CHANNELS 3 Xrotation Yrotation Zrotation
        JOINT LToe
        {
          OFFSET 0.0 -0.030816 0.064441
          CHANNELS 3 Xrotation Yrotation Zrotation
          End Site
          {
            OFFSET 0.0 0.0 0.043231
          }
        }
      }
    }
  }
}
MOTION
Frames: 15
Frame Time: 0.03333333333333333
-0.026044 0.579162 0.026946 27.506767 23.410257 21.90259 -18.65123 31.296713 -25.397577 8.300435 -9.718435 -43.54985 -14.386774 -38.507954 19.78422 4.744461 -45.789806 -5.949668 0.919108 44.765301 13.127966 -10.511547 45.784676 -14.934736 13.982354 -0.239324 -19.750402 -27.468952 -27.668674 -51.013664 -14.617954 -26.357437 33.02911 34.758358 -4.465038 35.514603 -7.790599 26.108994 -10.510044 -122.803864 46.69249 86.934395 35.606037 12.160552 24.335798 -26.618662 -9.805824 -40.556515 -17.01642 42.095043 20.219492 -9.096017 -27.356396 35.319561 9.923105 -36.251678 -25.29344 -24.201265 0.461938 -35.177605 -17.447521 45.252632 20.726503 34.764614 16.878525 -25.821119 -18.377897 39.272694 26.255527 
-0.029982 0.577375 0.02801 27.461237 23.210318 22.334223 -18.33658 30.985451 -26.120918 8.090929 -9.416201 -43.707188 -13.530931 -38.444321 20.394733 5.009717 -45.769772 -5.68836 0.634117 44.800228 13.317638 -11.39518 45.767822 -13.886085 13.216471 -0.128164 -19.808956 -27.810078 -27.631847 -51.064579 -14.675908 -26.427263 33.062729 34.630043 -3.985205 36.07386 -8.288077 25.246201 -9.18396 -120.116211 46.405846 85.189705 35.63166 12.192202 24.384985 -26.790392 -9.806607 -40.871445 -17.223274 41.701912 21.013693 -9.783844 -27.116388 35.328575 9.422485 -36.493191 -25.408651 -24.306656 0.400535 -35.40971 -17.731945 45.190063 21.324392 34.632915 16.552645 -26.362221 -18.26815 39.355053 26.284937 
-0.034295 0.575645 0.029454 27.429258 22.886911 22.756681 -18.044746 30.633074 -26.8293 7.861737 -9.137153 -43.835014 -12.672123 -38.389519 20.99534 5.327631 -45.72974 -5.398682 0.33958 44.801037 13.500686 -12.22613 45.732765 -12.914455 12.544123 -0.082169 -19.831945 -28.063551 -27.60532 -51.024433 -14.687231 -26.504911 33.073196 34.490665 -3.5202 36.606773 -8.729705 24.400309 -7.792052 -117.04229 46.049637 83.196823 35.63755 12.217463 24.415569 -26.966551 -9.854781 -41.050877 -17.359156 41.203445 21.830286 -10.415328 -26.843843 35.33881 8.927634 -36.708912 -25.487406 -24.414248 0.349023 -35.571781 -17.938669 45.073685 21.902485 34.462723 16.263575 -26.894794 -18.155916 39.409946 26.296595 
-0.03926 0.573847 0.03086 27.294783 22.457756 23.153826 -17.730532 30.226805 -27.516129 7.656162 -8.871514 -43.879013 -11.812531 -38.287197 21.56819 5.667307 -45.631966 -5.130373 0.073605 44.742092 13.653932 -13.040009 45.626076 -11.990757 11.904266 -0.065838 -19.945707 -28.246681 -27.583014 -50.834641 -14.659014 -26.563679 33.028927 34.307301 -3.025419 37.062126 -9.033289 23.647093 -6.345176 -113.73658 45.665661 80.963181 35.598785 12.220881 24.408049 -27.007713 -9.926218 -41.010426 -17.471888 40.610985 22.592394 -10.943419 -26.460238 35.335014 8.517576 -36.841862 -25.508038 -24.485825 0.273097 -35.602139 -18.011425 44.81805 22.413559 34.246525 16.039452 -27.376146 -18.0238 39.410862 26.261366 
-0.044514 0.572064 0.032153 27.026436 21.885647 23.513695 -17.405487 29.780359 -28.165895 7.490214 -8.614405 -43.859932 -11.008442 -38.134453 22.131706 5.940558 -45.511841 -4.800127 -0.162763 44.65554 13.803844 -13.925392 45.418201 -10.993314 11.539831 -0.241425 -20.066427 -28.316854 -27.540817 -50.575211 -14.675251 -26.590342 32.929237 34.148666 -2.38728 37.393917 -9.346985 22.977592 -4.971231 -109.625793 45.075569 78.177696 35.513809 12.22367 24.399548 -26.754704 -9.967029 -40.835506 -17.688416 40.028992 23.346699 -11.50701 -25.908337 35.380444 8.131699 -36.931923 -25.49416 -24.481695 0.16947 -35.520332 -18.017416 44.438389 22.9503 33.970985 15.840059 -27.843967 -17.845951 39.387165 26.211931 
-0.049952 0.570334 0.033303 26.65531 21.327707 23.857761 -17.089689 29.390478 -28.684868 7.329082 -8.401303 -43.791405 -10.245892 -37.947697 22.587645 6.089857 -45.381973 -4.517339 -0.391427 44.539257 13.911763 -14.772473 45.119743 -10.083697 11.36929 -0.457867 -20.198248 -28.272219 -27.390217 -50.263077 -14.699842 -26.589762 32.779793 34.00721 -1.56276 37.599285 -9.516927 22.370523 -3.713794 -106.144768 44.640442 76.017494 35.403412 12.23443 24.354813 -26.357254 -9.956082 -40.611649 -17.904388 39.421886 23.987759 -12.033479 -25.263681 35.431194 7.805004 -36.966248 -25.442711 -24.354385 0.116446 -35.320446 -17.960434 44.067451 23.405102 33.661591 15.658146 -28.219069 -17.672451 39.338959 26.122572 
-0.055211 0.568835 0.034166 26.296213 20.839508 24.150942 -16.8269 29.021389 -29.123592 7.18528 -8.245934 -43.706543 -9.549356 -37.757988 22.975702 6.098843 -45.270603 -4.268572 -0.590625 44.421246 13.987852 -15.57673 44.772224 -9.24194 11.350148 -0.717488 -20.280548 -28.161762 -27.195501 -49.951878 -14.727524 -26.581028 32.618385 33.903198 -0.62392 37.688389 -9.582586 21.8494 -2.590796 -103.165886 44.338383 74.309006 35.287655 12.255957 24.300308 -25.980598 -9.933063 -40.420219 -18.128023 38.81506 24.559292 -12.597898 -24.566696 35.493763 7.543386 -36.970016 -25.381512 -24.170876 0.105845 -35.075981 -17.921005 43.718971 23.817928 33.352364 15.466763 -28.537868 -17.519993 39.285618 26.009628 
-0.059832 0.567528 0.034825 26.010567 20.4984 24.359945 -16.627712 28.687782 -29.476246 7.075942 -8.134878 -43.63171 -8.992588 -37.580379 23.290007 5.977472 -45.182133 -4.057648 -0.751774 44.315586 14.042344 -16.252701 44.426502 -8.544633 11.395395 -0.998454 -20.295927 -27.991028 -26.951836 -49.662239 -14.753301 -26.56996 32.464115 33.824951 0.291865 37.650078 -9.656625 21.532934 -1.692574 -100.604126 44.111511 72.915237 35.190605 12.270217 24.244133 -25.641924 -9.907743 -40.306789 -18.346878 38.253395 25.042459 -13.182343 -23.869759 35.55698 7.339605 -36.964794 -25.326357 -23.96841 0.076742 -34.852734 -17.925196 43.368256 24.193319 33.063454 15.255484 -28.800842 -17.387354 39.23526 25.890631 
-0.063797 0.5665 0.0352 25.821564 20.291761 24.497236 -16.475801 28.401182 -29.77256 6.987106 -8.06813 -43.585991 -8.583221 -37.465424 23.518745 5.868087 -45.107929 -3.923654 -0.87839 44.238888 14.063473 -16.771448 44.132458 -8.002136 11.426573 -1.268598 -20.253698 -27.796799 -26.712328 -49.406887 -14.755548 -26.56785 32.346733 33.782101 1.043595 37.54895 -9.701532 21.516068 -1.023452 -98.504333 43.976299 71.886856 35.110245 12.290811 24.19907 -25.394154 -9.824713 -40.266186 -18.511614 37.757099 25.449791 -13.765221 -23.2735 35.589706 7.208092 -36.961861 -25.270199 -23.804447 0.086081 -34.672859 -17.917686 43.090633 24.503489 32.818363 15.092871 -29.001093 -17.293879 39.195023 25.786156 
-0.066723 0.565911 0.035421 25.714609 20.166538 24.574478 -16.378309 28.200081 -29.978739 6.935724 -8.054396 -43.549831 -8.258797 -37.366898 23.706171 5.760303 -45.07272 -3.832753 -0.970914 44.185471 14.088936 -17.129971 43.911713 -7.636651 11.508907 -1.531867 -20.17765 -27.616085 -26.527979 -49.237305 -14.747969 -26.565916 32.276836 33.760635 1.576078 37.451199 -9.721613 21.644419 -0.616589 -96.943748 43.859867 71.150261 35.051804 12.307137 24.180794 -25.221087 -9.742762 -40.281418 -18.654209 37.380142 25.787029 -14.235024 -22.858953 35.60355 7.143356 -36.963333 -25.217121 -23.68128 0.097795 -34.528259 -17.929098 42.90168 24.737015 32.637527 14.974089 -29.142345 -17.233788 39.167694 25.720301 
-0.068452 0.565855 0.035718 25.69556 20.144257 24.578062 -16.357384 28.083017 -30.058805 6.913765 -8.062205 -43.517361 -8.07519 -37.287552 23.792177 5.700624 -45.041222 -3.790549 -1.025001 44.142834 14.105504 -17.278063 43.797104 -7.479874 11.584704 -1.735335 -20.125898 -27.48407 -26.411049 -49.117016 -14.750261 -26.557003 32.226219 33.748512 1.790246 37.41032 -9.714521 21.834745 -0.418673 -96.035568 43.808529 70.723846 35.006176 12.311327 24.175657 -25.121405 -9.697522 -40.30724 -18.722445 37.164974 25.968702 -14.526159 -22.65136 35.583885 7.101134 -36.955948 -25.188782 -23.602076 0.116274 -34.406837 -17.955059 42.808395 24.865822 32.53252 14.94065 -29.197744 -17.197393 39.140316 25.67345 
-0.069055 0.566303 0.035986 25.738775 20.199253 24.522552 -16.390785 28.042728 -30.03208 6.909023 -8.084687 -43.489292 -8.024344 -37.240444 23.791729 5.691659 -45.007469 -3.787301 -1.044031 44.112328 14.109417 -17.244366 43.772594 -7.505467 11.653128 -1.859269 -20.114082 -27.398531 -26.352764 -49.046257 -14.75502 -26.543924 32.194946 33.749199 1.741539 37.40543 -9.691893 22.016642 -0.384634 -95.888435 43.844818 70.664124 34.976837 12.305367 24.174019 -25.091509 -9.686576 -40.33429 -18.726162 37.095394 26.001131 -14.639929 -22.626181 35.539444 7.089735 -36.93734 -25.177597 -23.568058 0.132912 -34.314323 -17.98797 42.788246 24.895824 32.496227 14.986004 -29.176744 -17.180925 39.114658 25.642092 
-0.06854 0.567233 0.036217 25.840172 20.31904 24.411858 -16.479574 28.081974 -29.898582 6.917506 -8.125907 -43.46595 -8.112507 -37.235176 23.703564 5.727635 -44.975258 -3.82601 -1.02449 44.095837 14.099821 -17.03088 43.837864 -7.709017 11.725369 -1.900121 -20.1432 -27.362013 -26.363413 -49.034 -14.763124 -26.528963 32.182159 33.769341 1.445443 37.425308 -9.647514 22.17523 -0.518403 -96.537842 43.971424 70.989052 34.963352 12.291283 24.17733 -25.135355 -9.714215 -40.354923 -18.67544 37.176315 25.883245 -14.568134 -22.774984 35.479355 7.116988 -36.906147 -25.183672 -23.575689 0.150418 -34.246887 -18.02968 42.845379 24.823761 32.530376 15.108994 -29.079081 -17.183451 39.093063 25.626677 
-0.066974 0.56865 0.036302 25.998411 20.491365 24.25515 -16.618162 28.194826 -29.667887 6.936095 -8.197221 -43.447739 -8.334119 -37.26318 23.542112 5.794613 -44.956688 -3.904663 -0.964264 44.093452 14.081389 -16.646362 43.978622 -8.080983 11.817735 -1.866873 -20.192408 -27.352911 -26.462049 -49.102577 -14.777997 -26.512096 32.189335 33.811703 0.932506 37.447281 -9.573674 22.325184 -0.830166 -97.91037 44.164333 71.677521 34.9627 12.270563 24.194971 -25.287376 -9.781688 -40.376831 -18.580942 37.402992 25.643297 -14.310151 -23.099575 35.409473 7.21227 -36.862339 -25.194269 -23.624826 0.178393 -34.198658 -18.078285 43.000072 24.639482 32.629421 15.282714 -28.909985 -17.204508 39.075893 25.636471 
-0.064414 0.57042 0.036062 26.212187 20.699562 24.045509 -16.817282 28.396805 -29.318089 6.960474 -8.320368 -43.43618 -8.676105 -37.355045 23.288006 5.827997 -44.970139 -4.033023 -0.857356 44.102844 14.054827 -16.107718 44.166611 -8.620318 11.96114 -1.764908 -20.236849 -27.349997 -26.669973 -49.26371 -14.794187 -26.498888 32.213554 33.88588 0.292286 37.431854 -9.436039 22.483973 -1.339532 -100.143288 44.446087 72.838104 34.973297 12.24557 24.222713 -25.583677 -9.873656 -40.402088 -18.454195 37.766647 25.278585 -13.873122 -23.53677 35.359577 7.409224 -36.798813 -25.198793 -23.705322 0.225942 -34.148319 -18.149008 43.261757 24.334755 32.77322 15.474907 -28.673931 -17.242519 39.062401 25.669786 
